<svg xmlns="http://www.w3.org/2000/svg" xmlns:xlink="http://www.w3.org/1999/xlink" fill="none" version="1.1" width="24" height="24" viewBox="0 0 24 24"><defs><clipPath id="master_svg0_3_19000"><rect x="0" y="0" width="24" height="24" rx="0"/></clipPath></defs><g clip-path="url(#master_svg0_3_19000)"><g><path d="M17.1085,3.71225L14.9006,7.02404C14.8151,7.15231,14.6448,7.19318,14.5065,7.1251C13.9599,6.85602,13.0719,6.49995,12,6.49995C9,6.49995,6.5,8.99995,6.5,11.74995C6.5,14.5,8.5,17.5003,12,17.5003C14.6163,17.5003,16.4904,15.7541,16.725099999999998,14.3013C16.7515,14.1378,16.6157,14.0002,16.45,14.0002L12.3,14.0002C12.1343,14.0002,12,13.8659,12,13.7002L12,10.8001C12,10.63442,12.135,10.5001,12.3007,10.5001Q15.696,10.50014,21.7211,10.49996C21.879,10.49995,22.0086,10.62402,22.0164,10.78177C22.1939,14.3612,21.1095,16.4958,19.75,18.25C17.662100000000002,20.944,14.5856,22.0001,12,22.0001C7,22.0001,2,18.0003,2,11.74995C2,5.75,7.36185,2,11.5,2Q15.4015,2,17.0574,3.3333399999999997C17.1719,3.42558,17.1901,3.58988,17.1085,3.71225" fill="#EA4336" fill-opacity="1"/></g><g><path d="M3.10763,16.51497631072998C2.40807,15.13750631072998,2,13.53556631072998,2,11.749956310729981C2,10.09925631072998,2.405843,8.618856310729981,3.08039,7.33998661392998L6.7775,10.166156310729981C6.59765,10.67274631072998,6.5,11.206466310729981,6.5,11.749956310729981C6.5,12.46567631072998,6.63547,13.198336310729982,6.89759,13.89065631072998L3.10763,16.51497631072998Z" fill-rule="evenodd" fill="#FBBD05" fill-opacity="1"/></g><g><path d="M18.51483120651245,19.566819795532226C16.55363120651245,21.294879795532225,14.112931206512451,22.00011979553223,11.99996120651245,22.00011979553223C8.428371206512452,22.00011979553223,4.856781206512451,19.959219795532228,3.107596322512451,16.514989795532227L6.897561206512451,13.890674384032227C7.642601206512452,15.858479795532226,9.41087120651245,17.500319795532228,11.99996120651245,17.500319795532228C13.138931206512451,17.500319795532228,14.137331206512451,17.169359795532227,14.92103120651245,16.675719795532228L18.51483120651245,19.566819795532226Z" fill-rule="evenodd" fill="#34A854" fill-opacity="1"/></g><g><path d="M14.92102,16.675718992004395C15.937380000000001,16.035498992004396,16.59259,15.121658992004395,16.72512,14.301338992004395C16.75154,14.137768992004395,16.61569,14.000268992004393,16.45,14.000268992004393L12.3,14.000268992004393C12.134315,14.000268992004393,12,13.865958992004394,12,13.700268992004395L12,10.800123992004394C12,10.634436992004394,12.134964,10.500122070004394,12.300652,10.500123978004394Q15.69602,10.500160217004394,21.72108,10.499979019204394C21.87902,10.499973297104395,22.0086,10.624037992004395,22.0164,10.781786992004395C22.1939,14.361238992004395,21.1095,16.495778992004396,19.75,18.250018992004396C19.36832,18.742498992004393,18.95361,19.180248992004394,18.5149,19.566808992004397L14.92102,16.675718992004395Z" fill-rule="evenodd" fill="#4286F5" fill-opacity="1"/></g></g></svg>